<?xml version="1.0" encoding="utf-8"?>
<!-- Generator: Adobe Illustrator 16.0.3, SVG Export Plug-In . SVG Version: 6.00 Build 0)  -->
<!DOCTYPE svg PUBLIC "-//W3C//DTD SVG 1.1//EN" "http://www.w3.org/Graphics/SVG/1.1/DTD/svg11.dtd">
<svg version="1.1" id="Layer_1" xmlns="http://www.w3.org/2000/svg" xmlns:xlink="http://www.w3.org/1999/xlink" x="0px" y="0px"
	 width="144px" height="55px" viewBox="0 0 497.5 198.5" enable-background="new 0 0 497.5 198.5" xml:space="preserve">
<g>
	<polygon fill="#93278F" points="45.452,189 9.452,189 78.548,9 114.548,9 	"/>
	<polygon fill="#93278F" points="222.548,9 208.729,45 99.729,45 113.548,9 	"/>
	<polygon fill="#93278F" points="194.91,81 181.09,117 72.09,117 85.91,81 	"/>
</g>
<g>
	<polygon fill="#93278F" points="225.452,189 189.452,189 230.91,81 266.91,81 	"/>
	<polygon fill="#93278F" points="204.271,153 190.452,189 117.452,189 131.271,153 	"/>
	<polygon fill="#93278F" points="294.729,9 280.91,45 244.91,45 258.729,9 	"/>
</g>
<g>
	<polygon fill="#93278F" points="434.548,189 398.548,189 329.452,9 365.452,9 	"/>
	<polygon fill="#93278F" points="487.271,153 473.452,189 398.452,189 412.271,153 	"/>
	<polygon fill="#93278F" points="314.271,189 278.271,189 323.638,81 341.167,125.833 	"/>
	<polygon fill="#93278F" points="357.548,9 343.729,45 315.729,45 329.719,9 	"/>
</g>
</svg>
