<?xml version="1.0" encoding="utf-8"?>
<!-- Generator: Adobe Illustrator 15.0.0, SVG Export Plug-In . SVG Version: 6.00 Build 0)  -->
<!DOCTYPE svg PUBLIC "-//W3C//DTD SVG 1.1//EN" "http://www.w3.org/Graphics/SVG/1.1/DTD/svg11.dtd">
<svg version="1.1" id="Layer_1" xmlns="http://www.w3.org/2000/svg" xmlns:xlink="http://www.w3.org/1999/xlink" x="0px" y="0px"
	 width="497.5px" height="198.5px" viewBox="0 0 497.5 198.5" enable-background="new 0 0 497.5 198.5" xml:space="preserve">
<g>
	<g>
		<polygon fill="#93278F" points="45.452,189 9.452,189 78.548,9 114.548,9 		"/>
		<polygon fill="#93278F" points="222.548,9 208.729,45 99.729,45 113.548,9 		"/>
		<polygon fill="#93278F" points="194.91,81 181.091,117 72.091,117 85.91,81 		"/>
	</g>
	<g>
		<polygon fill="#93278F" points="434.548,189 398.548,189 329.452,9 365.452,9 		"/>
		<polygon fill="#93278F" points="487.271,153 473.452,189 398.452,189 412.271,153 		"/>
		<polygon fill="#93278F" points="314.271,189 278.271,189 323.639,81 341.168,125.833 		"/>
		<polygon fill="#93278F" points="357.548,9 343.729,45 315.729,45 329.719,9 		"/>
	</g>
	<polygon fill="#93278F" points="280.724,45 266.904,81 230.905,81 244.724,45 	"/>
	<g>
		<polygon fill="#93278F" points="225.452,189 189.452,189 230.91,81 266.91,81 		"/>
		<polygon fill="#93278F" points="204.271,153 190.453,189 117.453,189 131.271,153 		"/>
		<polygon fill="#93278F" points="294.551,9 280.732,45 244.732,45 258.551,9 		"/>
		<polygon fill="#93278F" points="286.057,31 272.237,67 236.238,67 250.057,31 		"/>
		<polygon fill="#93278F" points="275.063,59.667 261.243,95.667 225.244,95.667 239.063,59.667 		"/>
	</g>
</g>
</svg>
